<svg width="32" height="32" fill="none" xmlns="http://www.w3.org/2000/svg"><g clip-path="url(#a)"><circle cx="16" cy="16" r="16" fill="#fff"/><path d="M23.583 12.75h-.888l-1.842-5.265a2.25 2.25 0 0 0-.793-1.075A2.12 2.12 0 0 0 18.817 6h-1.734C16.488 6 16 6.506 16 7.125s.488 1.125 1.083 1.125h1.734l1.581 4.5h-5.21l-.39-1.125h.097c.596 0 1.083-.506 1.083-1.125s-.487-1.125-1.083-1.125h-3.228c-.596 0-1.084.506-1.084 1.125s.488 1.125 1.084 1.125h.812l1.972 5.625h-.726c-.477-2.509-2.502-4.365-5.037-4.489C5.654 12.604 3 15.225 3 18.375S5.383 24 8.417 24c2.665 0 4.82-1.901 5.308-4.5h4.55c.477 2.509 2.503 4.365 5.038 4.489 3.033.146 5.687-2.464 5.687-5.625 0-3.139-2.383-5.614-5.417-5.614ZM9.5 19.5h1.972c-.455 1.384-1.734 2.34-3.272 2.239-1.614-.102-2.957-1.519-3.033-3.207C5.09 16.564 6.543 15 8.417 15c1.44 0 2.621.934 3.055 2.25H9.5c-.596 0-1.083.506-1.083 1.125S8.904 19.5 9.5 19.5Zm8.775-2.25h-1.517l-.79-2.25h3.282a5.425 5.425 0 0 0-.975 2.25Zm5.178 4.5c-1.668-.067-3.076-1.541-3.12-3.285-.021-1.08.423-2.025 1.138-2.655l.671 1.912c.206.585.824.89 1.387.675.564-.213.856-.854.65-1.44l-.682-1.946.01-.011c.435-.015.868.06 1.273.224.405.163.774.41 1.085.725.31.316.557.693.723 1.11.167.417.25.865.245 1.316 0 1.935-1.495 3.442-3.38 3.375Z" fill="url(#b)"/></g><defs><linearGradient id="b" x1="16" y1="6" x2="16" y2="24" gradientUnits="userSpaceOnUse"><stop stop-color="#FFB60D"/><stop offset="1" stop-color="#E59317"/></linearGradient><clipPath id="a"><path fill="#fff" d="M0 0h32v32H0z"/></clipPath></defs></svg>