<svg width="53" height="52" fill="none" xmlns="http://www.w3.org/2000/svg"><path d="M48.03 14a2 2 0 1 1 4.001.001 2 2 0 0 1-4-.001ZM48.03 2a2 2 0 1 1 4.001.001 2 2 0 0 1-4-.001ZM24.015 38a2 2 0 1 1 4.001.001 2 2 0 0 1-4-.001ZM24.015 26a2 2 0 1 1 4.001.001 2 2 0 0 1-4-.001ZM24.015 14a2 2 0 1 1 4.001.001 2 2 0 0 1-4-.001ZM24.015 2a2 2 0 1 1 4.001.001 2 2 0 0 1-4-.001ZM36.023 38a2 2 0 1 1 4 .001 2 2 0 0 1-4-.001ZM36.023 26a2 2 0 1 1 4 .001 2 2 0 0 1-4-.001ZM36.023 14a2 2 0 1 1 4 .001 2 2 0 0 1-4-.001ZM36.023 2a2 2 0 1 1 4.001.001A2 2 0 0 1 36.023 2ZM12.008 50a2 2 0 1 1 4 .001 2 2 0 0 1-4-.001ZM0 50a2 2 0 1 1 4.001.001 2 2 0 0 1-4-.001ZM12.008 38a2 2 0 1 1 4 .001 2 2 0 0 1-4-.001ZM0 38a2 2 0 1 1 4.001.001 2 2 0 0 1-4-.001ZM12.008 26a2 2 0 1 1 4 .001 2 2 0 0 1-4-.001ZM0 26a2 2 0 1 1 4.001.001 2 2 0 0 1-4-.001ZM12.008 14a2 2 0 1 1 4 .001 2 2 0 0 1-4-.001ZM0 14a2 2 0 1 1 4.001.001 2 2 0 0 1-4-.001ZM12.008 2a2 2 0 1 1 4.001.001A2 2 0 0 1 12.008 2ZM0 2a2 2 0 1 1 4.001.001 2 2 0 0 1-4-.001Z" fill="gray" fill-opacity=".3"/></svg>