<svg width="53" height="52" fill="none" xmlns="http://www.w3.org/2000/svg"><path d="M4.003 14A2 2 0 1 0 0 14.001 2 2 0 0 0 4.003 14ZM4.003 2A2 2 0 1 0 0 2.001 2 2 0 0 0 4.003 2ZM28.017 38a2 2 0 1 0-4 .001 2 2 0 0 0 4-.001ZM28.017 26a2 2 0 1 0-4 .001 2 2 0 0 0 4-.001ZM28.017 14a2 2 0 1 0-4 .001 2 2 0 0 0 4-.001ZM28.017 2a2 2 0 1 0-4 .001 2 2 0 0 0 4-.001ZM16.01 38a2 2 0 1 0-4.001.001A2 2 0 0 0 16.01 38ZM16.01 26a2 2 0 1 0-4.001.001A2 2 0 0 0 16.01 26ZM16.01 14a2 2 0 1 0-4.001.001A2 2 0 0 0 16.01 14ZM16.01 2a2 2 0 1 0-4.001.001A2 2 0 0 0 16.01 2ZM40.025 50a2 2 0 1 0-4.001.001A2 2 0 0 0 40.025 50ZM52.032 50a2 2 0 1 0-4 .001 2 2 0 0 0 4-.001ZM40.025 38a2 2 0 1 0-4.001.001A2 2 0 0 0 40.025 38ZM52.032 38a2 2 0 1 0-4 .001 2 2 0 0 0 4-.001ZM40.025 26a2 2 0 1 0-4.001.001A2 2 0 0 0 40.025 26ZM52.032 26a2 2 0 1 0-4 .001 2 2 0 0 0 4-.001ZM40.025 14a2 2 0 1 0-4.001.001A2 2 0 0 0 40.025 14ZM52.032 14a2 2 0 1 0-4 .001 2 2 0 0 0 4-.001ZM40.025 2a2 2 0 1 0-4.001.001A2 2 0 0 0 40.025 2ZM52.032 2a2 2 0 1 0-4 .001 2 2 0 0 0 4-.001Z" fill="gray" fill-opacity=".3"/></svg>