<svg width="53" height="52" fill="none" xmlns="http://www.w3.org/2000/svg"><path d="M4.003 38A2 2 0 1 1 0 37.999 2 2 0 0 1 4.003 38ZM4.003 50A2 2 0 1 1 0 49.999 2 2 0 0 1 4.003 50ZM28.017 14a2 2 0 1 1-4-.001 2 2 0 0 1 4 .001ZM28.017 26a2 2 0 1 1-4-.001 2 2 0 0 1 4 .001ZM28.017 38a2 2 0 1 1-4-.001 2 2 0 0 1 4 .001ZM28.017 50a2 2 0 1 1-4-.001 2 2 0 0 1 4 .001ZM16.01 14a2 2 0 1 1-4.001-.001A2 2 0 0 1 16.01 14ZM16.01 26a2 2 0 1 1-4.001-.001A2 2 0 0 1 16.01 26ZM16.01 38a2 2 0 1 1-4.001-.001A2 2 0 0 1 16.01 38ZM16.01 50a2 2 0 1 1-4.001-.001A2 2 0 0 1 16.01 50ZM40.025 2a2 2 0 1 1-4.001-.001A2 2 0 0 1 40.025 2ZM52.032 2a2 2 0 1 1-4-.001 2 2 0 0 1 4 .001ZM40.025 14a2 2 0 1 1-4.001-.001 2 2 0 0 1 4.001.001ZM52.032 14a2 2 0 1 1-4-.001 2 2 0 0 1 4 .001ZM40.025 26a2 2 0 1 1-4.001-.001 2 2 0 0 1 4.001.001ZM52.032 26a2 2 0 1 1-4-.001 2 2 0 0 1 4 .001ZM40.025 38a2 2 0 1 1-4.001-.001 2 2 0 0 1 4.001.001ZM52.032 38a2 2 0 1 1-4-.001 2 2 0 0 1 4 .001ZM40.025 50a2 2 0 1 1-4.001-.001 2 2 0 0 1 4.001.001ZM52.032 50a2 2 0 1 1-4-.001 2 2 0 0 1 4 .001Z" fill="gray" fill-opacity=".3"/></svg>