<svg width="27" height="20" viewBox="0 0 27 20" fill="none" xmlns="http://www.w3.org/2000/svg">
<path d="M12.3438 0L13.0938 1.28125C10.1771 2.82292 8.20833 4.19792 7.1875 5.40625C6.52083 6.21875 6.1875 6.98958 6.1875 7.71875C6.1875 8.44792 6.71875 9.3125 7.78125 10.3125C8.86458 11.3125 9.59375 12.1771 9.96875 12.9062C10.2396 13.4271 10.375 14.0312 10.375 14.7188C10.375 16.1146 9.875 17.3125 8.875 18.3125C7.875 19.3125 6.63542 19.8125 5.15625 19.8125C3.69792 19.8125 2.46875 19.2812 1.46875 18.2188C0.489583 17.1354 0 15.7604 0 14.0938C0 11.5104 0.791667 9.1875 2.375 7.125C4.47917 4.41667 7.80208 2.04167 12.3438 0ZM26.125 0L26.9062 1.375C23.9271 2.9375 21.9688 4.28125 21.0312 5.40625C20.3854 6.19792 20.0625 7 20.0625 7.8125C20.0625 8.5625 20.6354 9.45833 21.7812 10.5C23.3854 11.9375 24.1875 13.3542 24.1875 14.75C24.1875 16.1458 23.6771 17.3646 22.6562 18.4062C21.6562 19.4271 20.4688 19.9375 19.0938 19.9375C17.6771 19.9375 16.4375 19.375 15.375 18.25C14.3125 17.1042 13.7812 15.7083 13.7812 14.0625C13.7812 11.4792 14.6562 9.08333 16.4062 6.875C18.6146 4.04167 21.8542 1.75 26.125 0Z" fill="#E6A40B"/>
</svg>
