<svg width="27" height="20" viewBox="0 0 27 20" fill="none" xmlns="http://www.w3.org/2000/svg">
<path d="M14.5625 19.9375L13.8125 18.6562C16.7292 17.1146 18.6979 15.7396 19.7188 14.5312C20.3854 13.7188 20.7188 12.9479 20.7188 12.2188C20.7188 11.4896 20.1875 10.625 19.125 9.625C18.0417 8.625 17.3125 7.76042 16.9375 7.03125C16.6667 6.51042 16.5312 5.90625 16.5312 5.21875C16.5312 3.82292 17.0312 2.625 18.0312 1.625C19.0312 0.625 20.2708 0.125 21.75 0.125C23.2083 0.125 24.4375 0.65625 25.4375 1.71875C26.4167 2.80208 26.9062 4.17708 26.9062 5.84375C26.9062 8.42708 26.1146 10.75 24.5312 12.8125C22.4271 15.5208 19.1042 17.8958 14.5625 19.9375ZM0.78125 19.9375L0 18.5625C2.97917 17 4.9375 15.6562 5.875 14.5312C6.52083 13.7396 6.84375 12.9375 6.84375 12.125C6.84375 11.375 6.27083 10.4792 5.125 9.4375C3.52083 8 2.71875 6.58333 2.71875 5.1875C2.71875 3.79167 3.22917 2.57292 4.25 1.53125C5.25 0.510417 6.4375 0 7.8125 0C9.22917 0 10.4688 0.5625 11.5312 1.6875C12.5938 2.83333 13.125 4.22917 13.125 5.875C13.125 8.45833 12.25 10.8542 10.5 13.0625C8.29167 15.8958 5.05208 18.1875 0.78125 19.9375Z" fill="#E6A40B"/>
</svg>
